# xmcd
#
# Track frame offsets:
#	150
#	18550
#	26484
#	41787
#	65054
#	81014
#
# Disc length: 1379 seconds
#
# Revision: 3
# Processed by: cddbd v1.5.2PL0 Copyright (c) Steve Scherf et al.
# Submitted via: EasyCDDAExtractor 5.0.6
#
DISCID=49056106
DTITLE=Flight Of The Conchords - The Distant Future EP
DYEAR=2007
DGENRE=Indie
TTITLE0=Business Time
TTITLE1=If You're Into It
TTITLE2=I'm Not Crying
TTITLE3=The Most Beautiful Girl In The Room (Live)
TTITLE4=Banter (Live)
TTITLE5=Robots (Live)
EXTD=YEAR: 2007
EXTT0=
EXTT1=
EXTT2=
EXTT3=
EXTT4=
EXTT5=
PLAYORDER=
